<?xml version="1.0" encoding="utf-8"?>
<!-- Generator: Adobe Illustrator 15.1.0, SVG Export Plug-In . SVG Version: 6.00 Build 0)  -->
<!DOCTYPE svg PUBLIC "-//W3C//DTD SVG 1.1//EN" "http://www.w3.org/Graphics/SVG/1.1/DTD/svg11.dtd">
<svg version="1.1" id="Calque_1" xmlns="http://www.w3.org/2000/svg" xmlns:xlink="http://www.w3.org/1999/xlink" x="0px" y="0px"
	 width="60px" height="85px" viewBox="0 0 60 85" enable-background="new 0 0 60 85" xml:space="preserve">
<g>
	<path fill="#5F5F5E" d="M53.782,39.348"/>
	<path fill="#5F5F5E" d="M46.802,18.355c1.666,1.346,5.576,6.079,6.686,8.357c0.146,0.302,0.156,0.654,0.023,0.964
		c-0.133,0.309-0.393,0.546-0.713,0.648l-3.006,0.962l0.475,0.546c0.297,0.342,0.365,0.823,0.184,1.23
		c0.99,0.329,1.945,0.72,2.854,1.17c0.428,0.171,0.729,0.589,0.729,1.077c0,0.631-0.502,1.144-1.129,1.16
		c-0.146,0.005-0.293-0.017-0.436-0.069c-0.287-0.104-0.562-0.203-0.832-0.294c0.627,0.406,1.223,0.863,1.773,1.359
		c0.15,0.14,0.633,0.617,1.252,1.237c0.012,0.011,0.021,0.069,0.035-0.001c0.113-0.54,0.994-4.382,0.994-6.958
		c0-6.951-2.83-13.238-7.395-17.782c-0.014-0.015-0.092-0.067-0.092-0.055C48.188,14.055,47.927,16.334,46.802,18.355z"/>
	<path fill="#5F5F5E" d="M25.246,8.85c0.999-0.13,3.835-0.483,5.093-0.483c1.914,0,4.26,0.334,5.164,0.476
		c1.189-0.611,2.494-1.578,3.867-2.614c-2.732-1.02-5.689-1.581-8.777-1.581c-3.185,0-6.229,0.599-9.032,1.683
		c-0.054,0.02-0.013,0.037,0.002,0.047C22.868,7.361,24.109,8.268,25.246,8.85z"/>
	<path fill="#5F5F5E" d="M48.185,35.328c-1.469,2.999-1.791,4.331-1.855,4.854c1.031,0.344,1.062,1.125,1.045,1.381
		c-0.119,1.555-2.674,1.6-2.965,1.6c-1.594,0-2.422-0.688-2.738-1.478c-0.352,0.192-0.84,0.47-1.512,0.872
		c-0.043,0.164-0.002,0.551,0.018,0.724c0.016,0.154,0.029,0.29,0.031,0.396c0.086,3.323-3.123,8.187-9.371,8.674
		c-0.178,0.014-0.336,0.019-0.475,0.019c-0.213,0-0.373-0.012-0.467-0.019c-6.247-0.487-9.456-5.351-9.371-8.674
		c0.003-0.107,0.016-0.241,0.033-0.396c0.019-0.173,0.059-0.56,0.016-0.724c-0.672-0.402-1.159-0.68-1.511-0.872
		c-0.318,0.789-1.145,1.478-2.738,1.478c-0.291,0-2.847-0.045-2.964-1.6c-0.02-0.256,0.014-1.037,1.043-1.381
		c-0.066-0.547-0.416-1.978-2.062-5.272c-0.774,0.277-1.517,0.622-2.215,1.028c-0.484,0.28-1.787,1.264-3.14,2.338
		c3.492,9.658,12.742,16.563,23.606,16.563c10.455,0,19.414-6.394,23.188-15.483c-1.504-1.401-3.031-2.762-3.551-3.062
		C49.583,35.918,48.897,35.595,48.185,35.328z"/>
	<path fill="#5F5F5E" d="M6.932,35.124c0.566-0.511,1.163-0.967,1.784-1.371c-0.268,0.091-0.544,0.189-0.83,0.294
		c-0.577,0.209-1.219-0.067-1.461-0.632c-0.243-0.564-0.004-1.221,0.546-1.496c1.018-0.51,2.096-0.946,3.213-1.3
		c-0.007-0.282,0.09-0.562,0.283-0.785l0.475-0.546l-3.006-0.962c-0.32-0.103-0.581-0.339-0.713-0.648
		c-0.132-0.31-0.124-0.662,0.023-0.964c1.109-2.279,5.021-7.012,6.686-8.357c-1.019-1.829-1.329-3.87-1.391-5.833
		c-0.002-0.065-0.067-0.135-0.091-0.109c-4.307,4.503-6.952,10.607-6.952,17.332c0,2.053,0.25,4.048,0.714,5.958
		c0.005,0.018,0.031,0.017,0.041,0.009C6.584,35.429,6.842,35.207,6.932,35.124z"/>
</g>
<path fill="#5F5F5E" d="M44.298,8.208c-0.229,0.41-0.408,0.84-0.582,1.275l-0.537,1.297c-0.18,0.435-0.381,0.86-0.605,1.281
	c-0.234,0.414-0.475,0.834-0.875,1.175c-0.105,0.081-0.225,0.156-0.369,0.198c-0.143,0.043-0.312,0.04-0.457-0.013
	c-0.146-0.051-0.26-0.154-0.336-0.204l-0.061-0.038l-0.02-0.009c0-0.004-0.01,0.004,0.047,0c0.021-0.004,0.033-0.008,0.057-0.021
	c0.027-0.014,0.051-0.046,0.059-0.067c0.018-0.032,0.014-0.071,0.014-0.068c-0.002-0.023,0-0.01,0-0.007
	c0.006,0.013,0.016,0.036,0.029,0.057c0.217,0.371,0.531,0.739,0.812,1.104c0.289,0.365,0.588,0.723,0.896,1.074
	c0.307,0.349,0.596,0.726,0.973,0.999c-0.223-0.086-0.398-0.254-0.58-0.402c-0.178-0.153-0.352-0.312-0.523-0.473
	c-0.336-0.328-0.662-0.668-0.98-1.014c-0.32-0.352-0.625-0.693-0.902-1.117c-0.018-0.03-0.033-0.058-0.051-0.101
	c-0.008-0.024-0.018-0.038-0.023-0.091c-0.004-0.013-0.002-0.065,0.018-0.111c0.014-0.027,0.043-0.064,0.074-0.083
	c0.029-0.018,0.049-0.021,0.076-0.027c0.086-0.007,0.105,0.011,0.133,0.018c0.025,0.01,0.041,0.018,0.061,0.027
	c0.033,0.018,0.061,0.037,0.09,0.054c0.117,0.081,0.182,0.136,0.26,0.162c0.15,0.057,0.316-0.006,0.477-0.134
	c0.322-0.261,0.57-0.666,0.801-1.058c0.234-0.396,0.438-0.815,0.652-1.229C43.349,9.835,43.722,8.958,44.298,8.208z"/>
<path fill="#5F5F5E" d="M37.427,32.637c-0.209,0.103-0.322,0.257-0.344,0.386c-0.018,0.129,0.025,0.228,0.115,0.3
	c0.043,0.042,0.1,0.07,0.164,0.088c0.016,0.004,0.031,0.011,0.047,0.014l0.014,0.001l0.004,0.001
	c-0.02,0.001-0.004,0.001-0.006,0.001l0.01,0l0.039,0.003c0.027,0,0.062,0.005,0.1,0.001c0.145-0.018,0.314-0.081,0.424-0.291
	c0.111,0.221-0.043,0.536-0.295,0.651c-0.061,0.034-0.129,0.055-0.209,0.067l-0.037,0.006l-0.012,0.001l-0.021,0.001l-0.025,0.002
	c-0.037,0.001-0.072,0-0.109-0.003c-0.143-0.017-0.285-0.077-0.402-0.172c-0.113-0.1-0.203-0.24-0.23-0.396
	c-0.023-0.156,0.002-0.319,0.088-0.443C36.903,32.603,37.218,32.532,37.427,32.637z"/>
<path fill="#5F5F5E" d="M38.396,31c-0.211,0.103-0.32,0.257-0.346,0.386c-0.018,0.129,0.025,0.227,0.117,0.3
	c0.041,0.041,0.1,0.069,0.162,0.087c0.018,0.004,0.031,0.01,0.049,0.014l0.014,0.002l0.002,0.001c-0.004,0,0.012,0-0.008,0h0.004
	l0.008,0.001l0.041,0.003c0.027,0,0.061,0.005,0.1,0.001c0.145-0.018,0.312-0.08,0.422-0.29c0.113,0.22-0.043,0.536-0.295,0.65
	c-0.061,0.033-0.131,0.056-0.207,0.067l-0.039,0.006l-0.01,0.001l-0.023,0.001l-0.025,0.001c-0.037,0.003-0.072,0-0.107-0.002
	c-0.145-0.017-0.285-0.077-0.404-0.172c-0.111-0.101-0.201-0.24-0.23-0.396c-0.023-0.157,0.004-0.32,0.09-0.444
	C37.872,30.965,38.187,30.895,38.396,31z"/>
<path fill="#5F5F5E" d="M38.804,32.898c-0.189,0.102-0.307,0.232-0.348,0.35c-0.018,0.056-0.023,0.122-0.014,0.142
	c0.012,0.068,0.01,0.049,0.02,0.078c0.01,0.02,0.021,0.041,0.039,0.059c0.051,0.083,0.178,0.151,0.297,0.19
	c0.16,0.03,0.307,0.04,0.512-0.051c-0.025,0.222-0.27,0.4-0.49,0.432c-0.266,0.042-0.531-0.051-0.711-0.279
	c-0.043-0.057-0.074-0.125-0.1-0.194c-0.021-0.062-0.035-0.177-0.029-0.206c0.014-0.172,0.07-0.296,0.17-0.396
	C38.335,32.829,38.612,32.795,38.804,32.898z"/>
<path fill="#5F5F5E" d="M16.435,8.208c0.576,0.75,0.948,1.627,1.375,2.454c0.216,0.414,0.418,0.833,0.652,1.229
	c0.231,0.392,0.479,0.797,0.801,1.058c0.161,0.128,0.328,0.191,0.477,0.134c0.078-0.025,0.143-0.081,0.261-0.162
	c0.027-0.017,0.056-0.036,0.089-0.054c0.02-0.009,0.034-0.017,0.06-0.027c0.027-0.007,0.046-0.025,0.132-0.018
	c0.027,0.006,0.046,0.009,0.077,0.027c0.031,0.02,0.062,0.056,0.074,0.083c0.021,0.046,0.021,0.099,0.018,0.112
	c-0.006,0.052-0.015,0.066-0.024,0.09c-0.017,0.042-0.034,0.07-0.05,0.1c-0.278,0.424-0.582,0.765-0.901,1.117
	c-0.319,0.346-0.645,0.686-0.981,1.014c-0.172,0.161-0.346,0.32-0.525,0.473c-0.181,0.148-0.356,0.316-0.579,0.402
	c0.376-0.273,0.665-0.65,0.973-0.999c0.308-0.351,0.607-0.708,0.897-1.074c0.279-0.365,0.595-0.733,0.812-1.104
	c0.012-0.021,0.023-0.043,0.027-0.057c0.002-0.003,0.004-0.017,0,0.007c0-0.002-0.003,0.037,0.015,0.068
	c0.008,0.021,0.033,0.053,0.06,0.067c0.025,0.013,0.035,0.017,0.056,0.021c0.057,0.004,0.047-0.004,0.047,0l-0.019,0.009
	l-0.061,0.038c-0.076,0.05-0.191,0.152-0.335,0.204c-0.145,0.053-0.313,0.057-0.457,0.013c-0.144-0.042-0.264-0.117-0.369-0.198
	c-0.402-0.341-0.642-0.761-0.875-1.175c-0.224-0.421-0.425-0.847-0.604-1.281l-0.539-1.297C16.843,9.048,16.664,8.618,16.435,8.208z
	"/>
<path fill="#5F5F5E" d="M23.306,32.637c0.209-0.105,0.524-0.034,0.688,0.22c0.086,0.125,0.112,0.287,0.088,0.443
	c-0.029,0.157-0.118,0.296-0.23,0.396c-0.118,0.095-0.26,0.155-0.404,0.172c-0.036,0.003-0.072,0.004-0.108,0.003l-0.026-0.002
	l-0.021-0.001l-0.011-0.001l-0.039-0.006c-0.078-0.012-0.148-0.034-0.208-0.067c-0.253-0.116-0.407-0.432-0.293-0.651
	c0.108,0.21,0.278,0.273,0.421,0.291c0.038,0.004,0.073-0.001,0.1-0.001l0.039-0.003l0.009,0c-0.002,0,0.015,0-0.004-0.001
	l0.003-0.001l0.012-0.001c0.018-0.003,0.034-0.01,0.049-0.014c0.063-0.018,0.121-0.046,0.163-0.088c0.09-0.072,0.135-0.17,0.117-0.3
	C23.626,32.894,23.516,32.739,23.306,32.637z"/>
<path fill="#5F5F5E" d="M22.337,31c0.209-0.105,0.525-0.034,0.688,0.219c0.086,0.124,0.113,0.287,0.09,0.444
	c-0.03,0.157-0.119,0.295-0.231,0.396c-0.118,0.095-0.26,0.155-0.403,0.172c-0.036,0.002-0.072,0.005-0.107,0.002l-0.026-0.001
	l-0.022-0.001l-0.01-0.001l-0.039-0.006c-0.078-0.012-0.147-0.033-0.208-0.067c-0.253-0.115-0.408-0.43-0.294-0.65
	c0.108,0.209,0.278,0.272,0.421,0.29c0.039,0.004,0.073-0.001,0.1-0.001l0.039-0.003l0.011-0.001h0.002c-0.02,0-0.005,0-0.008,0
	l0.003-0.001l0.012-0.002c0.018-0.003,0.034-0.009,0.049-0.014c0.064-0.018,0.121-0.047,0.163-0.088
	c0.09-0.072,0.134-0.169,0.116-0.299C22.659,31.256,22.546,31.103,22.337,31z"/>
<path fill="#5F5F5E" d="M21.929,32.898c0.192-0.103,0.469-0.069,0.657,0.125c0.098,0.099,0.154,0.223,0.166,0.396
	c0.008,0.029-0.007,0.144-0.029,0.206c-0.023,0.069-0.055,0.137-0.097,0.194c-0.181,0.229-0.448,0.321-0.711,0.279
	c-0.221-0.031-0.465-0.209-0.49-0.432c0.203,0.09,0.35,0.081,0.512,0.051c0.119-0.039,0.246-0.107,0.296-0.19
	c0.017-0.018,0.027-0.039,0.039-0.059c0.009-0.028,0.009-0.01,0.019-0.077c0.011-0.021,0.005-0.087-0.012-0.143
	C22.235,33.13,22.12,33,21.929,32.898z"/>
<path fill="#5F5F5E" d="M37.747,33.31"/>
<path fill="#5F5F5E" d="M41.546,27.279"/>
<g>
	<path fill="#5F5F5E" d="M42.513,24.69c-0.053-0.629-0.219-1.223-0.393-1.814c0.018,0.618,0.086,1.229,0.086,1.826
		c0,0.293-0.023,0.599-0.115,0.831c-0.049,0.116-0.115,0.183-0.199,0.203c-0.084,0.023-0.211,0.004-0.336-0.043
		c-0.486-0.223-1.09-0.642-1.766-0.596c-0.33,0.027-0.607,0.1-0.906,0.083c-0.297-0.009-0.596-0.085-0.891-0.161
		c0.271,0.142,0.562,0.253,0.873,0.314c0.312,0.069,0.646,0.018,0.928,0.024c0.283,0.005,0.551,0.106,0.814,0.231
		c0.273,0.121,0.494,0.302,0.818,0.439c0.16,0.06,0.346,0.116,0.561,0.061c0.223-0.056,0.371-0.253,0.432-0.418
		C42.55,25.327,42.528,25.003,42.513,24.69z"/>
	<path fill="#5F5F5E" d="M21.094,25.096c-0.676-0.045-1.279,0.373-1.767,0.596c-0.125,0.047-0.251,0.066-0.336,0.043
		c-0.082-0.02-0.148-0.086-0.198-0.203c-0.092-0.232-0.116-0.538-0.114-0.831c-0.001-0.597,0.067-1.208,0.084-1.826
		c-0.173,0.591-0.339,1.185-0.392,1.814c-0.016,0.313-0.039,0.637,0.091,0.98c0.061,0.165,0.211,0.362,0.432,0.418
		c0.215,0.055,0.403-0.001,0.561-0.061c0.325-0.137,0.546-0.319,0.818-0.439c0.266-0.125,0.533-0.227,0.816-0.231
		c0.28-0.006,0.615,0.045,0.927-0.024c0.311-0.061,0.602-0.173,0.876-0.314c-0.298,0.076-0.596,0.151-0.894,0.161
		C21.7,25.196,21.423,25.124,21.094,25.096z"/>
	<path fill="#5F5F5E" d="M35.815,23.732c0.051,0.03,1.252,0.741,2.584,0.741l0,0c0.369,0,0.717-0.056,1.035-0.166
		c1.416-0.494,1.742-3.415,1.594-4.293c-0.049-0.29-0.16-0.438-0.332-0.438c-0.082,0-0.16,0.038-0.229,0.115
		c-0.383,0.416-2.1,1.224-2.973,1.608c0.115-0.194,0.229-0.388,0.336-0.585c0.268-0.498,0.531-1.001,0.756-1.527
		c0.111-0.263,0.215-0.53,0.295-0.814c0.039-0.143,0.076-0.288,0.082-0.458c-0.002-0.085,0.004-0.179-0.062-0.298
		c-0.035-0.06-0.094-0.116-0.174-0.144c-0.016-0.006-0.051-0.015-0.053-0.014l-0.041-0.006l-0.039-0.004
		c-0.225-0.037-0.486-0.167-0.729-0.287c-0.248-0.122-0.492-0.258-0.734-0.4l-1.443-0.873c0.42,0.378,0.855,0.739,1.32,1.064
		c0.232,0.164,0.467,0.324,0.711,0.473c0.252,0.144,0.494,0.288,0.82,0.361c0.113-0.09,0.074,0.242-0.002,0.486
		c-0.074,0.257-0.178,0.515-0.287,0.768c-0.223,0.507-0.469,1.008-0.734,1.5c-0.266,0.492-0.537,0.981-0.826,1.461
		c-0.293,0.475-0.568,0.968-0.92,1.386c-0.324,0.395-0.738,0.725-1.232,0.843c-0.08-0.028-0.16-0.051-0.236-0.064
		c-0.246-0.037-0.484-0.043-0.721-0.031c-0.117,0.005-0.232,0.022-0.348,0.033c-0.145-0.032-0.291-0.066-0.434-0.1
		c0.105,0.037,0.211,0.075,0.318,0.111c-0.309,0.035-0.617,0.082-0.92,0.154c0.465,0.043,0.928,0.055,1.379,0.087
		c0.227,0.021,0.451,0.036,0.656,0.085c0.209,0.045,0.383,0.131,0.391,0.241c0.031,0.129-0.049,0.352-0.139,0.544
		c-0.088,0.203-0.201,0.4-0.307,0.604c-0.215,0.405-0.432,0.815-0.609,1.248c0.307-0.353,0.59-0.716,0.855-1.098
		c0.135-0.191,0.258-0.389,0.373-0.602c0.1-0.217,0.232-0.44,0.184-0.775c-0.025-0.134-0.117-0.25-0.215-0.325
		c0.393-0.108,0.74-0.352,1.031-0.633C35.806,23.721,35.81,23.728,35.815,23.732z M36.185,23.514
		c0.145-0.195,0.279-0.38,0.404-0.554c0.008,0.064,0.023,0.127,0.045,0.189c0.023,0.062,0.057,0.128,0.1,0.196
		c0.016,0.022,0.035,0.046,0.051,0.069c0.033,0.046,0.064,0.092,0.104,0.138c0.027,0.03,0.061,0.06,0.088,0.089
		c0.039,0.04,0.074,0.08,0.117,0.119c0.039,0.036,0.084,0.069,0.127,0.104c0.039,0.03,0.074,0.063,0.115,0.092
		C36.829,23.822,36.411,23.628,36.185,23.514z M40.657,20.018c0.078,0.353,0.053,1.402-0.256,2.401
		c-0.104,0.336-0.229,0.625-0.369,0.861c0.014-0.035,0.027-0.07,0.041-0.105c0.174-0.479,0.209-0.997,0.092-1.317
		c-0.152-0.418-0.617-0.667-1.246-0.667c-0.104,0-0.213,0.009-0.32,0.024c-0.014,0.001-0.025,0.001-0.039,0.003
		C39.325,20.853,40.259,20.372,40.657,20.018z"/>
	<path fill="#5F5F5E" d="M26.242,24.512c0.205-0.05,0.432-0.065,0.656-0.085c0.452-0.033,0.914-0.044,1.379-0.087
		c-0.237-0.057-0.477-0.101-0.717-0.135c0.125-0.042,0.25-0.086,0.373-0.13c-0.17,0.039-0.342,0.081-0.513,0.117
		c-0.175-0.021-0.35-0.042-0.527-0.051c-0.235-0.012-0.472-0.006-0.719,0.031c-0.038,0.006-0.077,0.017-0.115,0.027
		c-0.434-0.143-0.8-0.448-1.097-0.806c-0.351-0.417-0.625-0.911-0.919-1.386c-0.289-0.479-0.56-0.969-0.826-1.461
		c-0.265-0.492-0.511-0.994-0.735-1.5c-0.109-0.253-0.213-0.511-0.287-0.768c-0.075-0.244-0.115-0.578-0.003-0.486
		c0.328-0.075,0.57-0.217,0.822-0.361c0.246-0.149,0.48-0.309,0.711-0.473c0.464-0.325,0.901-0.686,1.32-1.064L23.6,16.764
		c-0.241,0.142-0.485,0.278-0.733,0.4c-0.242,0.12-0.503,0.25-0.73,0.287l-0.038,0.004l-0.041,0.006
		c-0.001-0.001-0.037,0.008-0.055,0.014c-0.079,0.027-0.137,0.083-0.172,0.144c-0.066,0.119-0.061,0.213-0.062,0.298
		c0.007,0.169,0.043,0.315,0.081,0.458c0.081,0.285,0.186,0.551,0.296,0.814c0.223,0.526,0.487,1.029,0.757,1.527
		c0.106,0.198,0.22,0.392,0.333,0.585c-0.873-0.385-2.591-1.192-2.973-1.609c-0.07-0.077-0.146-0.115-0.229-0.115
		c-0.17,0-0.283,0.147-0.332,0.438c-0.148,0.878,0.18,3.799,1.596,4.293c0.316,0.11,0.665,0.166,1.034,0.166
		c1.333,0,2.533-0.71,2.583-0.741c0.007-0.004,0.011-0.011,0.018-0.017c0.248,0.24,0.537,0.453,0.861,0.579c0,0-0.002,0-0.002,0.001
		c-0.128,0.064-0.266,0.208-0.299,0.379c-0.049,0.335,0.083,0.559,0.183,0.775c0.116,0.212,0.238,0.411,0.373,0.602
		c0.266,0.381,0.548,0.745,0.856,1.098c-0.177-0.433-0.395-0.843-0.611-1.248c-0.104-0.204-0.217-0.401-0.305-0.604
		c-0.09-0.192-0.17-0.415-0.138-0.544C25.858,24.643,26.032,24.557,26.242,24.512z M20.332,22.417
		c-0.309-0.998-0.335-2.047-0.258-2.399c0.39,0.35,1.328,0.833,2.098,1.199c-0.121-0.018-0.241-0.027-0.359-0.027
		c-0.627,0-1.094,0.249-1.246,0.666c-0.045,0.124-0.068,0.274-0.068,0.45c0,0.308,0.066,0.647,0.194,0.962
		C20.556,23.034,20.434,22.749,20.332,22.417z M23.396,23.957c0.35-0.25,0.611-0.561,0.702-0.808
		c0.022-0.061,0.038-0.125,0.045-0.189c0.125,0.174,0.261,0.359,0.405,0.554C24.322,23.629,23.902,23.823,23.396,23.957z"/>
</g>
<g>
	<path fill="#5F5F5E" d="M43.421,7.668c0.848-0.595,1.686-1.203,2.523-1.814c-0.158,0.161-0.322,0.311-0.48,0.526
		c-0.172,0.255-0.281,0.537-0.354,0.819c-0.268,1.138-0.154,2.273-0.059,3.383c0.068,0.555,0.113,1.105,0.193,1.664
		c0.02,0.13,0.047,0.291,0.021,0.352c-0.012,0.053-0.154,0.13-0.268,0.196c-0.246,0.135-0.488,0.286-0.719,0.44
		c-0.117,0.078-0.234,0.153-0.348,0.239c-0.059,0.047-0.113,0.076-0.178,0.165c-0.018,0.018-0.035,0.094-0.004,0.137
		c0.027,0.035,0.045,0.044,0.059,0.056c0.029,0.021,0.051,0.037,0.066,0.054c0.141,0.209,0.27,0.469,0.357,0.724
		c0.18,0.519,0.26,1.078,0.23,1.632c0.076-0.552,0.029-1.123-0.127-1.666c-0.08-0.274-0.18-0.528-0.338-0.789
		c-0.025-0.033-0.057-0.057-0.082-0.077c0.029-0.025,0.074-0.061,0.119-0.089l0.35-0.22c0.236-0.147,0.473-0.283,0.719-0.409
		c0.062-0.033,0.125-0.064,0.191-0.103c0.061-0.04,0.146-0.092,0.191-0.198c0.066-0.208,0.016-0.333,0.012-0.476
		c-0.062-0.545-0.086-1.108-0.137-1.661c-0.086-1.097-0.174-2.226,0.086-3.264c0.066-0.256,0.17-0.5,0.309-0.704
		C45.894,6.397,46.124,6.202,46.312,6c0.387-0.405,0.766-0.812,1.131-1.249c0.051-0.061,0.055-0.15,0.006-0.216
		c-0.059-0.076-0.168-0.091-0.244-0.034c-1.312,0.987-2.633,1.962-3.934,2.963l-1.959,1.492c-0.652,0.499-1.301,1.004-1.967,1.483
		c0.707-0.422,1.375-0.899,2.057-1.358C42.081,8.62,42.747,8.14,43.421,7.668z"/>
	<path fill="#5F5F5E" d="M54.978,38.346c-1.377-1.42-2.953-2.657-4.682-3.635c-0.729-0.395-1.479-0.744-2.26-1.031
		c0.273-0.528,0.549-1.053,0.834-1.575c0.064,0.015,0.131,0.027,0.197,0.042c1.283,0.302,2.547,0.708,3.797,1.163
		c-1.189-0.595-2.441-1.074-3.729-1.437c-0.039-0.011-0.082-0.02-0.121-0.03c0.205-0.372,0.404-0.744,0.615-1.111l0.002-0.002
		c0.057-0.099,0.047-0.227-0.033-0.317l-1.367-1.564l4.289-1.391l0.006-0.001c0.012-0.003,0.021-0.009,0.033-0.014
		c0.121-0.062,0.17-0.21,0.109-0.331c-0.41-0.811-0.914-1.534-1.428-2.253c-0.516-0.714-1.057-1.408-1.611-2.09
		c-0.557-0.681-1.129-1.349-1.721-2.001c-0.297-0.325-0.6-0.646-0.914-0.958c-0.314-0.306-0.613-0.609-1.008-0.875l-0.439-0.374
		c0.861-1.251,1.324-2.732,1.523-4.208c0.209-1.547,0.168-3.104,0.098-4.64c-0.035-0.769-0.08-1.536-0.084-2.298
		c-0.002-0.38,0.006-0.763,0.043-1.131c0.043-0.354,0.184-0.699,0.365-1.021c0.371-0.646,0.893-1.21,1.441-1.735
		c0.551-0.529,1.146-1.006,1.734-1.512c0.145-0.136,0.291-0.243,0.426-0.446c0.014-0.032,0.037-0.063,0.033-0.134
		c-0.002-0.082-0.084-0.144-0.121-0.15c-0.084-0.026-0.135-0.019-0.189-0.017c-0.107,0.007-0.205,0.027-0.301,0.048
		c-0.385,0.084-0.754,0.198-1.121,0.311c-0.736,0.225-1.469,0.491-2.172,0.811c-1.408,0.636-2.729,1.446-3.992,2.324
		c-1.266,0.878-2.477,1.83-3.699,2.76c-1.229,0.922-2.463,1.854-3.85,2.525c1.396-0.654,2.646-1.571,3.885-2.478
		c1.236-0.914,2.459-1.849,3.732-2.707c1.271-0.859,2.596-1.646,4-2.259c0.701-0.307,1.42-0.56,2.158-0.773
		c0.367-0.108,0.736-0.216,1.104-0.292c0.092-0.018,0.184-0.035,0.27-0.04c0.008-0.001,0.016,0,0.023,0
		c-0.086,0.108-0.223,0.227-0.346,0.333c-1.164,0.979-2.443,1.916-3.279,3.279c-0.199,0.343-0.361,0.721-0.418,1.133
		c-0.045,0.396-0.057,0.783-0.059,1.171c0,0.776,0.039,1.545,0.068,2.312c0.059,1.532,0.088,3.067-0.129,4.571
		c-0.211,1.498-0.695,2.97-1.588,4.177c-0.064,0.086-0.053,0.208,0.029,0.279l0.002,0.001l0.582,0.503l0.018,0.013l0.01,0.006
		c0.322,0.217,0.643,0.535,0.945,0.835c0.305,0.308,0.6,0.627,0.891,0.951c0.582,0.648,1.145,1.315,1.691,1.994
		c0.545,0.68,1.076,1.372,1.58,2.081c0.441,0.628,0.875,1.271,1.229,1.935l-4.4,1.391c-0.033,0.01-0.068,0.029-0.096,0.053
		c-0.111,0.098-0.121,0.266-0.025,0.377l1.496,1.734c-0.203,0.356-0.4,0.715-0.598,1.074c-1.074-0.258-2.172-0.425-3.277-0.497
		c-1.02-0.042-2.051-0.005-3.062,0.148c-0.168-0.889-0.529-1.532-0.84-1.916c0.35-0.193,0.707-0.373,1.072-0.534
		c1.402-0.633,2.914-0.997,4.475-1.141c-0.781-0.071-1.578-0.037-2.357,0.104c-0.779,0.138-1.541,0.381-2.268,0.701
		c-0.398,0.18-0.785,0.386-1.158,0.613c-0.029-0.026-0.059-0.05-0.082-0.07c-2.336-1.832-6.633,3.926-6.633,3.926
		s3.566-3.121,5.469-2.963c-0.486,0.407-0.936,0.859-1.311,1.367c0.516-0.483,1.076-0.906,1.648-1.298
		c0.457,0.163,0.764,0.602,0.816,1.443c-1.225,0.308-2.426,0.77-3.434,1.523c0.572-0.34,1.182-0.601,1.809-0.809
		c0.533-0.186,1.08-0.325,1.633-0.436c0,0.021,0.002,0.039,0.002,0.061c-0.006,0.298,0.012,0.703-0.088,1.107
		c-0.709,0.091-1.414,0.211-2.111,0.37c0.688-0.096,1.379-0.172,2.07-0.223c-0.217,0.673-0.807,1.31-2.436,1.414
		c-2.725,0.173-4.955,0.289-5.58,0.289c-0.557,0-1.584-0.232-1.924-1.127c0.299-0.094,0.57-0.257,0.793-0.449
		c0.348-0.299,0.623-0.654,0.859-1.026c0.232-0.371,0.43-0.767,0.602-1.161c0.172-0.393,0.334-0.793,0.471-1.203
		c0.068-0.204,0.133-0.412,0.189-0.623c0.051-0.217,0.109-0.418,0.1-0.682c-0.004-0.036-0.01-0.074-0.029-0.121
		c-0.016-0.045-0.076-0.121-0.162-0.133c-0.152-0.006-0.191,0.056-0.248,0.09c-0.104,0.086-0.16,0.159-0.238,0.23
		c-0.15,0.144-0.309,0.276-0.479,0.395c-0.662,0.486-1.482,0.741-2.32,0.797c-0.846-0.051-1.677-0.307-2.345-0.798
		c-0.17-0.119-0.332-0.252-0.48-0.395c-0.08-0.07-0.129-0.149-0.255-0.235c-0.033-0.019-0.068-0.041-0.13-0.047
		c-0.055-0.013-0.14,0.016-0.18,0.061c-0.082,0.089-0.085,0.161-0.099,0.225c-0.042,0.489,0.079,0.899,0.188,1.325
		c0.236,0.839,0.601,1.64,1.095,2.372c0.253,0.361,0.548,0.705,0.913,0.982c0.209,0.161,0.453,0.289,0.714,0.373
		c-0.33,0.913-1.371,1.151-1.931,1.151c-0.625,0-2.856-0.116-5.581-0.289c-1.647-0.105-2.231-0.755-2.442-1.437
		c0.63,0.074,1.26,0.159,1.889,0.246c-0.638-0.142-1.281-0.27-1.927-0.38c-0.096-0.402-0.079-0.802-0.083-1.097
		c-0.002-0.118,0.004-0.225,0.01-0.331c0.42,0.098,0.837,0.208,1.245,0.351c0.626,0.208,1.237,0.468,1.808,0.809
		c-0.896-0.671-1.945-1.11-3.026-1.415c0.099-0.727,0.421-1.097,0.874-1.222c0.41,0.3,0.81,0.617,1.184,0.969
		c-0.271-0.367-0.581-0.702-0.913-1.015c1.906-0.138,5.451,2.965,5.451,2.965s-4.295-5.758-6.632-3.926
		c-0.003,0.001-0.005,0.005-0.008,0.006c-0.508-0.347-1.048-0.649-1.611-0.903c-0.727-0.321-1.488-0.562-2.269-0.701
		c-0.779-0.142-1.576-0.175-2.357-0.104c1.561,0.144,3.071,0.508,4.476,1.141c0.525,0.231,1.034,0.5,1.527,0.797
		c-0.293,0.333-0.655,0.915-0.857,1.734c-1.153-0.214-2.331-0.278-3.502-0.229c-1.045,0.066-2.084,0.218-3.103,0.453
		c-0.125-0.224-0.247-0.45-0.375-0.673l1.493-1.723c0.024-0.029,0.045-0.064,0.058-0.102c0.047-0.151-0.037-0.312-0.186-0.36
		l-4.362-1.391c0.352-0.649,0.778-1.279,1.215-1.895c0.506-0.706,1.038-1.396,1.582-2.076c0.546-0.679,1.108-1.346,1.689-1.993
		c0.29-0.323,0.585-0.642,0.889-0.949c0.301-0.3,0.622-0.619,0.938-0.83l0.012-0.008l0.02-0.015l0.582-0.503l0.002-0.002
		c0.098-0.084,0.114-0.229,0.037-0.333c-0.888-1.2-1.371-2.665-1.582-4.158c-0.216-1.5-0.188-3.032-0.128-4.564
		c0.029-0.767,0.068-1.537,0.067-2.314c-0.002-0.389-0.013-0.778-0.057-1.174c-0.057-0.426-0.221-0.804-0.421-1.152
		c-0.044-0.073-0.094-0.14-0.141-0.209c0.331,0.389,0.672,0.757,1.02,1.123c0.188,0.202,0.418,0.397,0.554,0.584
		c0.142,0.205,0.242,0.448,0.31,0.704c0.26,1.039,0.172,2.167,0.086,3.264c-0.051,0.553-0.075,1.116-0.135,1.661
		c-0.005,0.143-0.056,0.268,0.01,0.476c0.045,0.106,0.131,0.158,0.193,0.198c0.064,0.039,0.126,0.07,0.189,0.103
		c0.248,0.126,0.484,0.261,0.72,0.408l0.35,0.22c0.044,0.028,0.09,0.063,0.118,0.089c-0.025,0.021-0.055,0.044-0.081,0.077
		c-0.158,0.261-0.258,0.514-0.339,0.789c-0.156,0.542-0.202,1.114-0.126,1.666c-0.029-0.555,0.051-1.114,0.229-1.632
		c0.09-0.255,0.218-0.515,0.357-0.724c0.016-0.018,0.037-0.033,0.066-0.054c0.015-0.012,0.034-0.021,0.059-0.056
		c0.033-0.043,0.016-0.12-0.002-0.137c-0.065-0.088-0.119-0.117-0.178-0.165c-0.114-0.086-0.231-0.161-0.348-0.239
		c-0.231-0.154-0.474-0.305-0.718-0.44c-0.116-0.065-0.258-0.143-0.269-0.196c-0.024-0.061,0.001-0.221,0.02-0.352
		c0.081-0.559,0.125-1.109,0.193-1.664c0.098-1.109,0.21-2.245-0.059-3.383c-0.071-0.282-0.18-0.564-0.353-0.82
		c-0.158-0.214-0.321-0.364-0.479-0.524c0.836,0.611,1.674,1.219,2.523,1.813c0.671,0.472,1.338,0.952,2.017,1.415
		c0.681,0.458,1.351,0.936,2.057,1.358c-0.667-0.479-1.313-0.985-1.965-1.484l-1.96-1.491c-1.301-1.001-2.622-1.976-3.933-2.963
		c-0.064-0.047-0.154-0.048-0.217,0.005c-0.046,0.039-0.064,0.096-0.059,0.152c-0.827-1.15-1.957-1.998-2.992-2.873
		c-0.075-0.065-0.158-0.138-0.229-0.208c0.042,0.007,0.082,0.011,0.126,0.019c0.362,0.076,0.732,0.186,1.098,0.295
		c0.735,0.215,1.45,0.468,2.148,0.776c1.398,0.609,2.718,1.394,3.988,2.252c1.271,0.857,2.492,1.791,3.729,2.706
		c1.24,0.906,2.492,1.825,3.898,2.483c0.012,0.006,0.026,0.009,0.039,0.006c0.882-0.123,1.766-0.237,2.65-0.338
		c0.884-0.096,1.771-0.2,2.657-0.216c0.891-0.002,1.779,0.061,2.666,0.146c0.887,0.088,1.77,0.201,2.65,0.339
		c-0.879-0.151-1.76-0.274-2.646-0.373c-0.887-0.098-1.775-0.172-2.67-0.182c-0.894,0.004-1.781,0.097-2.667,0.181
		c-0.88,0.089-1.758,0.191-2.635,0.301c-1.371-0.666-2.599-1.592-3.82-2.509c-1.223-0.929-2.434-1.881-3.702-2.761
		c-1.266-0.88-2.59-1.693-4.005-2.332c-0.705-0.32-1.442-0.585-2.18-0.807c-0.37-0.113-0.738-0.226-1.126-0.312
		c-0.099-0.02-0.197-0.039-0.31-0.047C9.862,1.205,9.809,1.194,9.705,1.227C9.68,1.236,9.646,1.25,9.61,1.287
		C9.573,1.321,9.546,1.384,9.545,1.429C9.542,1.525,9.57,1.561,9.587,1.597c0.147,0.225,0.291,0.322,0.439,0.461
		c0.591,0.506,1.186,0.98,1.737,1.505c0.548,0.522,1.069,1.083,1.437,1.72c0.181,0.317,0.32,0.663,0.363,1.001
		c0.038,0.369,0.046,0.75,0.045,1.129c-0.004,0.761-0.049,1.527-0.084,2.296c-0.07,1.537-0.113,3.095,0.099,4.646
		c0.196,1.468,0.655,2.943,1.509,4.194l-0.413,0.352c-0.399,0.271-0.696,0.572-1.011,0.877c-0.314,0.313-0.617,0.635-0.914,0.96
		c-0.594,0.652-1.166,1.321-1.722,2.003c-0.557,0.682-1.097,1.377-1.612,2.094c-0.512,0.721-1.014,1.447-1.424,2.262
		c-0.006,0.012-0.011,0.026-0.016,0.039c-0.047,0.146,0.033,0.302,0.179,0.35l0.004,0l4.265,1.372l-1.345,1.545
		c-0.079,0.09-0.095,0.224-0.032,0.334l0,0.001c0.134,0.235,0.262,0.475,0.394,0.712c-0.089,0.023-0.18,0.043-0.269,0.068
		C9.93,31.882,8.68,32.36,7.49,32.956c1.25-0.455,2.512-0.86,3.798-1.163c0.115-0.026,0.23-0.049,0.346-0.075
		c0.27,0.488,0.534,0.979,0.794,1.474c-0.888,0.305-1.725,0.698-2.547,1.136c-1.788,0.995-3.435,2.226-4.918,3.621
		c-1.478,1.4-2.834,2.934-3.958,4.623c0.623-0.8,1.286-1.564,1.985-2.295c0.692-0.736,1.415-1.443,2.171-2.11
		c1.511-1.333,3.133-2.55,4.905-3.5c0.812-0.443,1.66-0.852,2.527-1.157c0.155,0.301,0.316,0.599,0.467,0.9
		c0.618,1.243,1.209,2.501,1.684,3.791c0.231,0.642,0.447,1.304,0.518,1.944c0.039,0.308-0.007,0.649-0.115,0.721
		c-0.017,0.032-0.157,0.049-0.371,0.097c-0.101,0.026-0.201,0.051-0.333,0.13c-0.062,0.044-0.162,0.1-0.216,0.275
		c-0.026,0.085-0.013,0.185,0.014,0.25c0.026,0.066,0.059,0.111,0.089,0.146c0.121,0.129,0.217,0.172,0.312,0.223
		c0.096,0.047,0.188,0.081,0.281,0.111c0.183,0.061,0.365,0.104,0.549,0.136c0.367,0.064,0.737,0.093,1.114,0.069
		c0.375-0.024,0.767-0.09,1.142-0.307c0.185-0.109,0.36-0.27,0.479-0.475c0.113-0.199,0.16-0.423,0.164-0.631
		c0.018-0.104,0.029-0.205,0.037-0.293c0.002-0.047,0.007-0.093,0.013-0.13c0.043,0.009,0.094,0.022,0.148,0.042
		c0.33,0.122,0.68,0.312,1.02,0.498c0.341,0.189,0.681,0.389,1.021,0.588l0.489,0.294c0.111,0.079,0.193,0.184,0.247,0.32
		c0.112,0.276,0.104,0.646,0.065,1.021c-0.018,0.185-0.052,0.402-0.043,0.628c0.002,0.214,0.021,0.425,0.051,0.632
		c0.123,0.832,0.416,1.617,0.809,2.34c0.789,1.447,2.004,2.647,3.439,3.441c1.443,0.796,3.052,1.203,4.701,1.258
		c1.648-0.059,3.256-0.469,4.695-1.268c1.432-0.798,2.646-1.992,3.434-3.438c0.393-0.722,0.686-1.504,0.809-2.335
		c0.029-0.209,0.047-0.412,0.049-0.634c0.002-0.096,0-0.219-0.012-0.326l-0.031-0.297c-0.039-0.375-0.047-0.748,0.066-1.028
		c0.053-0.136,0.146-0.251,0.246-0.32c0.146-0.095,0.332-0.201,0.496-0.3c0.34-0.2,0.68-0.398,1.021-0.588
		c0.34-0.186,0.691-0.377,1.021-0.499c0.061-0.022,0.119-0.037,0.164-0.046c0.006,0.04,0.012,0.093,0.016,0.145
		c0.008,0.09,0.018,0.191,0.037,0.295c0.004,0.207,0.051,0.428,0.162,0.623c0.115,0.203,0.289,0.362,0.473,0.47
		c0.371,0.216,0.762,0.281,1.135,0.306c0.377,0.023,0.746-0.005,1.113-0.068c0.182-0.033,0.363-0.076,0.547-0.137
		c0.092-0.029,0.184-0.064,0.279-0.109c0.094-0.051,0.189-0.093,0.307-0.219c0.053-0.058,0.146-0.199,0.102-0.383
		c-0.053-0.171-0.15-0.227-0.211-0.27c-0.129-0.076-0.229-0.101-0.328-0.128c-0.1-0.026-0.207-0.04-0.27-0.054
		c-0.051-0.007-0.078-0.027-0.107-0.045c-0.115-0.079-0.158-0.424-0.121-0.732c0.072-0.643,0.287-1.305,0.518-1.947
		c0.477-1.291,1.068-2.549,1.686-3.792c0.068-0.135,0.141-0.269,0.211-0.405c0.77,0.291,1.518,0.649,2.236,1.048
		c1.711,0.932,3.258,2.15,4.66,3.506c0.705,0.679,1.367,1.4,1.992,2.156c0.633,0.748,1.221,1.536,1.756,2.359
		C57.573,41.341,56.351,39.769,54.978,38.346z M34.585,35.497c0.051-0.099,0.158-0.164,0.266-0.211
		c0.223-0.086,0.465-0.114,0.705-0.136c0.074-0.005,0.146,0.001,0.217,0.01c0.041,0.005,0.082,0.012,0.121,0.022
		c0.02,0.004,0.039,0.012,0.059,0.018c0.1,0.032,0.195,0.077,0.277,0.142c0.191,0.146,0.311,0.364,0.385,0.586
		c0.076,0.224,0.1,0.463,0.105,0.699c0.004,0.24-0.01,0.466-0.072,0.692c-0.113,0.453-0.291,0.896-0.512,1.302
		c-0.109,0.204-0.227,0.401-0.363,0.577c-0.07,0.086-0.139,0.171-0.215,0.246c-0.037,0.037-0.074,0.073-0.113,0.105
		c-0.016,0.012-0.027,0.02-0.041,0.029c-0.02-0.07-0.033-0.164-0.043-0.258c-0.018-0.225-0.023-0.465-0.035-0.704
		c-0.016-0.48-0.055-0.971-0.148-1.459c-0.053-0.243-0.113-0.487-0.23-0.716c-0.117-0.225-0.268-0.412-0.355-0.626
		C34.548,35.712,34.532,35.594,34.585,35.497z M34.978,43.028c-1.379,1.319-1.912,2.049-2.459,2.445
		c-0.068-0.132-0.137-0.271-0.154-0.366c-0.045-0.205-0.094-0.376-0.221-0.586c-0.023-0.029-0.037-0.057-0.09-0.104
		c-0.035-0.02-0.066-0.064-0.191-0.069c-0.068,0.002-0.131,0.03-0.168,0.065c-0.037,0.033-0.053,0.062-0.066,0.084
		c-0.039,0.085-0.035,0.117-0.041,0.154c-0.002,0.035-0.002,0.063-0.002,0.092c0,0.092-0.004,0.133-0.021,0.207
		c-0.033,0.136-0.104,0.297-0.166,0.478c-0.029-0.06-0.062-0.118-0.09-0.177c-0.055-0.116-0.07-0.212-0.119-0.37
		c-0.049-0.14-0.102-0.267-0.195-0.405c-0.014-0.017-0.027-0.035-0.047-0.057c-0.025-0.018-0.035-0.053-0.135-0.069
		c-0.055-0.008-0.121,0.032-0.139,0.06c-0.023,0.031-0.029,0.05-0.035,0.068c-0.008,0.032-0.012,0.059-0.014,0.078
		c-0.002,0.09,0.01,0.148,0.006,0.207c0,0.111-0.031,0.24-0.068,0.365c-0.078,0.249-0.191,0.522-0.168,0.794l0,0
		c0.021-0.269-0.115-0.543-0.195-0.791c-0.037-0.127-0.068-0.252-0.068-0.371c-0.004-0.062,0.01-0.104,0.006-0.202
		c0-0.021-0.004-0.047-0.012-0.079c-0.008-0.019-0.012-0.035-0.033-0.064c-0.018-0.028-0.082-0.066-0.135-0.06
		c-0.096,0.017-0.107,0.051-0.133,0.068c-0.02,0.021-0.033,0.039-0.045,0.056c-0.094,0.136-0.146,0.265-0.195,0.403
		c-0.027,0.071-0.041,0.141-0.061,0.202c-0.016,0.062-0.035,0.106-0.06,0.169c-0.027,0.06-0.062,0.12-0.094,0.182
		c-0.062-0.182-0.132-0.348-0.168-0.483c-0.017-0.075-0.021-0.126-0.021-0.208c0.001-0.02,0.001-0.06-0.003-0.092
		c-0.005-0.037-0.002-0.068-0.039-0.151c-0.011-0.021-0.029-0.052-0.062-0.083c-0.038-0.035-0.097-0.064-0.166-0.069
		c-0.127,0.003-0.162,0.05-0.195,0.069c-0.054,0.047-0.068,0.074-0.09,0.104c-0.127,0.21-0.178,0.38-0.225,0.586
		c-0.021,0.1-0.056,0.204-0.096,0.311c-0.562-0.41-1.195-1.133-2.509-2.39c-1.246-1.189-1.605-1.718-1.617-2.098
		c-0.009-0.286,0.089-1.082,0.39-1.674c0.041,0.069,0.08,0.141,0.124,0.208c0.072,0.108,0.154,0.212,0.247,0.31
		c0.045,0.049,0.095,0.096,0.147,0.143c0.049,0.041,0.105,0.09,0.195,0.137c0.044,0.021,0.098,0.043,0.169,0.051
		s0.169-0.009,0.24-0.056c0.14-0.099,0.168-0.2,0.197-0.276c0.049-0.156,0.058-0.284,0.067-0.414
		c0.014-0.199,0.013-0.389,0.009-0.576c1.375,0.326,3.934,1.137,4.393,1.754h0.062c0.465-0.627,3.098-1.453,4.457-1.77
		c-0.004,0.193-0.006,0.389,0.008,0.592c0.01,0.13,0.02,0.258,0.066,0.414c0.029,0.076,0.057,0.178,0.197,0.275
		c0.07,0.047,0.168,0.064,0.24,0.057s0.125-0.029,0.168-0.051c0.09-0.047,0.146-0.096,0.197-0.137
		c0.053-0.047,0.102-0.093,0.146-0.143c0.068-0.072,0.125-0.15,0.184-0.229c0.236,0.521,0.486,1.107,0.508,1.296
		C36.636,41.229,36.323,41.744,34.978,43.028z M35.931,43.885c-0.023,0.221-0.057,0.44-0.1,0.66
		c-0.084,0.438-0.195,0.873-0.367,1.287c-0.176,0.402-0.402,0.816-0.783,1.062c-0.398,0.205-0.918,0.13-1.256-0.154
		c-0.342-0.296-0.428-0.794-0.359-1.214c0.043-0.213,0.199-0.373,0.393-0.472c0.191-0.102,0.404-0.166,0.617-0.229l0.322-0.084
		c0.109-0.021,0.236-0.086,0.324-0.154c0.189-0.145,0.336-0.327,0.461-0.516c0.129-0.188,0.24-0.384,0.359-0.569
		c0.059-0.09,0.127-0.184,0.197-0.248c0.088-0.068,0.143-0.086,0.18-0.002C35.991,43.425,35.944,43.668,35.931,43.885z
		 M32.827,46.835c-0.332,0.016-0.662,0.031-0.996,0.053c-0.455,0.042-0.91,0.068-1.365,0.126c-0.479-0.059-0.954-0.088-1.431-0.128
		c-0.33-0.022-0.657-0.036-0.986-0.051c0.146-0.187,0.266-0.381,0.385-0.578c0.156-0.292,0.302-0.573,0.402-0.915
		c0.104,0.263,0.211,0.468,0.219,0.702v0.008c0.003,0.07,0.041,0.137,0.105,0.175c0.101,0.06,0.23,0.025,0.291-0.075
		c0.142-0.246,0.259-0.494,0.355-0.769c0.02-0.065,0.045-0.148,0.059-0.219l0.035-0.19c0.008-0.036,0.018-0.072,0.029-0.108
		c0.031,0.116,0.076,0.224,0.125,0.323c0.121,0.243,0.297,0.475,0.34,0.746c0.043-0.268,0.201-0.501,0.328-0.743
		c0.045-0.094,0.086-0.194,0.117-0.304c0.008,0.029,0.018,0.059,0.023,0.088c0.023,0.102,0.045,0.274,0.096,0.408
		c0.094,0.276,0.213,0.521,0.357,0.768c0.037,0.062,0.102,0.104,0.178,0.106c0.117,0.005,0.217-0.088,0.221-0.206l0.002-0.008
		c0.008-0.234,0.111-0.439,0.215-0.702c0.057,0.165,0.133,0.287,0.203,0.42c0.09,0.162,0.182,0.318,0.283,0.47
		C32.552,46.437,32.688,46.638,32.827,46.835z M27.485,46.74c-0.337,0.284-0.856,0.359-1.256,0.154
		c-0.381-0.246-0.607-0.658-0.784-1.062c-0.17-0.414-0.282-0.85-0.367-1.287c-0.042-0.22-0.074-0.439-0.099-0.66
		c-0.016-0.216-0.061-0.46,0.011-0.632c0.039-0.084,0.094-0.066,0.18,0.002c0.072,0.064,0.139,0.158,0.197,0.248
		c0.119,0.186,0.232,0.382,0.359,0.569c0.127,0.188,0.272,0.369,0.461,0.516c0.09,0.068,0.216,0.133,0.325,0.154l0.323,0.084
		c0.212,0.062,0.425,0.127,0.618,0.229c0.19,0.098,0.349,0.259,0.391,0.472C27.914,45.946,27.828,46.444,27.485,46.74z
		 M29.393,33.015c-0.264-0.197-0.495-0.446-0.704-0.716c0.048-0.309,0.055-0.73,0.006-1.196c-0.098-0.914-0.363-0.751-0.596-0.728
		c-0.201,0.021-0.311-0.195-0.273,0.46c-0.139-0.304-0.265-0.615-0.374-0.93c-0.124-0.389-0.252-0.819-0.236-1.186
		c0.002-0.016,0.006-0.029,0.008-0.042c0.055,0.035,0.133,0.118,0.21,0.182c0.167,0.146,0.342,0.278,0.527,0.395
		c0.75,0.458,1.628,0.671,2.484,0.623c0,0,0.002-0.001,0.002-0.002c0.834,0.039,1.691-0.171,2.424-0.618
		c0.188-0.117,0.363-0.249,0.527-0.393c0.078-0.066,0.158-0.147,0.221-0.196c-0.006,0.159-0.061,0.358-0.115,0.539
		c-0.062,0.198-0.135,0.395-0.211,0.59c-0.1,0.236-0.199,0.473-0.301,0.708c-0.035-0.151-0.129-0.117-0.264-0.131
		c-0.232-0.024-0.5-0.187-0.598,0.728c-0.041,0.398-0.041,0.766-0.012,1.057c-0.209,0.304-0.439,0.589-0.711,0.817
		c-0.293,0.248-0.639,0.417-0.992,0.422C30.056,33.393,29.7,33.246,29.393,33.015z M27.877,35.816
		c0.813-0.168,2.499-0.663,2.51-0.66c0.588,0.169,1.711,0.495,2.51,0.66c0.812,0.166,1.436,0.119,1.076,0.358
		c-0.359,0.239-0.621,0.215-0.621,0.215s-0.096,1.315-1.029,1.483c0,0,0.217-1.269-0.107-1.531
		c-0.322-0.263-0.562,0.741-0.609,1.148c-0.047,0.406-0.359-0.453-0.383-0.98h-0.051c0,0-0.256,0.406-0.309,0.676
		c-0.051,0.271-0.223,0.592-0.215,0.294c0.006-0.296-0.262-0.898-0.262-0.898s-0.303,0.602-0.295,0.898
		c0.008,0.298-0.162-0.023-0.213-0.294c-0.055-0.271-0.311-0.676-0.311-0.676h-0.018c-0.023,0.527-0.335,1.387-0.382,0.98
		c-0.049-0.407-0.287-1.411-0.611-1.148s-0.107,1.531-0.107,1.531c-0.932-0.168-1.028-1.483-1.028-1.483s-0.262,0.024-0.621-0.215
		C26.442,35.936,27.063,35.982,27.877,35.816z M24.224,35.929c0.076-0.222,0.193-0.44,0.384-0.586c0.083-0.065,0.18-0.11,0.28-0.142
		c0.02-0.006,0.038-0.014,0.057-0.018c0.041-0.011,0.081-0.018,0.122-0.022c0.07-0.009,0.141-0.016,0.217-0.01
		c0.238,0.022,0.48,0.05,0.704,0.136c0.107,0.047,0.215,0.112,0.267,0.211c0.053,0.097,0.037,0.215-0.006,0.319
		c-0.087,0.214-0.237,0.401-0.355,0.626c-0.117,0.229-0.179,0.473-0.23,0.717c-0.096,0.487-0.133,0.978-0.15,1.458
		c-0.012,0.239-0.017,0.479-0.036,0.704c-0.009,0.094-0.023,0.188-0.043,0.259c-0.013-0.009-0.025-0.019-0.04-0.03
		c-0.039-0.032-0.077-0.068-0.115-0.105c-0.075-0.075-0.145-0.16-0.213-0.246c-0.137-0.176-0.254-0.373-0.363-0.577
		c-0.221-0.405-0.399-0.85-0.514-1.302c-0.061-0.228-0.076-0.452-0.07-0.692C24.126,36.391,24.147,36.153,24.224,35.929z
		 M12.999,33.02c-0.251-0.479-0.509-0.956-0.771-1.43c0.979-0.194,1.969-0.33,2.963-0.372c1.142-0.074,2.288-0.015,3.418,0.155
		c-0.078,0.428-0.111,0.914-0.07,1.453c-0.927-0.115-1.86-0.182-2.801-0.169C14.82,32.666,13.896,32.783,12.999,33.02z
		 M47.159,34.152c-0.627,1.254-1.229,2.521-1.721,3.848c-0.238,0.667-0.469,1.34-0.555,2.087c-0.02,0.188-0.025,0.383,0.004,0.592
		c0.027,0.203,0.104,0.453,0.32,0.643c0.109,0.086,0.24,0.148,0.363,0.17c0.039,0.008,0.07,0.014,0.102,0.019
		c-0.018,0.007-0.031,0.014-0.049,0.02c-0.148,0.048-0.307,0.085-0.467,0.114c-0.32,0.056-0.652,0.078-0.973,0.059
		c-0.316-0.021-0.633-0.086-0.867-0.227c-0.236-0.139-0.348-0.34-0.348-0.61c0-0.019-0.002-0.038-0.006-0.056
		c-0.016-0.08-0.023-0.166-0.031-0.266c-0.012-0.102-0.006-0.203-0.068-0.377c-0.029-0.084-0.115-0.207-0.236-0.266
		c-0.121-0.058-0.221-0.057-0.297-0.053c-0.154,0.013-0.262,0.05-0.367,0.086c-0.414,0.152-0.758,0.345-1.113,0.535
		c-0.352,0.193-0.695,0.394-1.039,0.596c-0.174,0.104-0.332,0.192-0.521,0.312c-0.227,0.154-0.381,0.367-0.475,0.598
		c-0.18,0.465-0.146,0.912-0.109,1.316l0.029,0.293c0.01,0.091,0.01,0.166,0.01,0.268c-0.004,0.177-0.02,0.366-0.047,0.549
		c-0.109,0.737-0.381,1.461-0.744,2.126c-0.732,1.337-1.863,2.446-3.197,3.186c-1.332,0.739-2.881,1.128-4.391,1.178
		c-1.508-0.056-3.057-0.445-4.384-1.188c-1.331-0.743-2.462-1.848-3.191-3.183c-0.364-0.663-0.634-1.386-0.744-2.122
		c-0.026-0.184-0.043-0.367-0.045-0.549c-0.008-0.173,0.019-0.347,0.039-0.557c0.035-0.405,0.07-0.854-0.111-1.321
		c-0.091-0.231-0.259-0.455-0.475-0.602c-0.202-0.129-0.349-0.211-0.528-0.317c-0.342-0.202-0.687-0.401-1.038-0.595
		c-0.356-0.191-0.7-0.383-1.114-0.537c-0.107-0.037-0.216-0.074-0.373-0.086c-0.078-0.003-0.18-0.005-0.302,0.055
		c-0.127,0.059-0.215,0.188-0.245,0.272c-0.062,0.177-0.057,0.28-0.069,0.382c-0.009,0.098-0.017,0.184-0.032,0.262
		c-0.002,0.02-0.005,0.039-0.005,0.06c0,0.267-0.108,0.461-0.341,0.599c-0.23,0.139-0.545,0.205-0.862,0.225
		c-0.317,0.02-0.647-0.003-0.967-0.059c-0.161-0.029-0.318-0.066-0.466-0.114c-0.001-0.001-0.002-0.001-0.003-0.002
		c0.12-0.021,0.267-0.057,0.424-0.182c0.22-0.192,0.298-0.447,0.326-0.65c0.03-0.212,0.021-0.407,0.004-0.597
		c-0.087-0.75-0.317-1.422-0.556-2.09c-0.492-1.328-1.094-2.595-1.72-3.849c-0.137-0.271-0.283-0.54-0.423-0.81
		c0.839-0.226,1.711-0.331,2.585-0.381c0.934-0.046,1.873-0.008,2.808,0.071c0.104,0.99,0.454,2.156,1.206,3.487
		c1.362,2.411,1.889,2.254,2.575,4.683c0.575,2.039,1.391,6.117,3.497,7.137c1.053,0.51,2.779,0.765,4.505,0.765h0.055
		c1.727,0,3.453-0.255,4.506-0.765c2.105-1.02,2.922-5.098,3.496-7.137c0.686-2.429,1.213-2.271,2.576-4.683
		c0.729-1.291,1.078-2.426,1.193-3.396c0.82-0.015,1.639,0.015,2.451,0.11c0.924,0.116,1.84,0.292,2.723,0.582
		C47.278,33.924,47.218,34.037,47.159,34.152z M47.503,33.494c-0.93-0.294-1.889-0.487-2.857-0.562
		c-0.82-0.067-1.643-0.068-2.459-0.022c0.039-0.454,0.027-0.869-0.02-1.246c0.992-0.123,1.996-0.155,2.994-0.091
		c1.055,0.044,2.104,0.196,3.141,0.41C48.028,32.482,47.765,32.987,47.503,33.494z"/>
</g>
<g>
	<g>
		<path fill="#5F5F5E" d="M17.14,61.357v-0.374c0-0.725-0.117-1.238-0.352-1.545s-0.629-0.458-1.183-0.458
			c-0.619,0-1.067,0.139-1.343,0.418s-0.415,0.729-0.415,1.354c0,0.505,0.123,0.895,0.365,1.167
			c0.244,0.272,0.787,0.632,1.629,1.077c1.306,0.688,2.166,1.282,2.582,1.781c0.409,0.499,0.614,1.185,0.614,2.058
			c0,1.199-0.306,2.1-0.917,2.699c-0.612,0.6-1.529,0.899-2.752,0.899c-1.312,0-2.238-0.306-2.778-0.918
			c-0.498-0.563-0.748-1.476-0.748-2.734l0.009-0.338v-0.375h1.745v0.375c-0.012,0.98,0.108,1.653,0.36,2.021
			s0.722,0.552,1.41,0.552c0.694,0,1.195-0.158,1.503-0.477c0.309-0.316,0.463-0.835,0.463-1.554c0-0.547-0.142-0.973-0.422-1.282
			c-0.28-0.304-0.899-0.707-1.858-1.211c-1.121-0.594-1.899-1.155-2.338-1.685c-0.435-0.522-0.652-1.157-0.652-1.905
			c0-1.116,0.294-1.951,0.883-2.508c0.588-0.555,1.473-0.832,2.655-0.832c1.236,0,2.098,0.256,2.584,0.767
			c0.451,0.475,0.68,1.264,0.686,2.368l-0.012,0.285v0.374H17.14z"/>
		<path fill="#5F5F5E" d="M23.32,70.469c-1.051,0-1.79-0.254-2.218-0.761c-0.428-0.509-0.641-1.38-0.641-2.614v-2.548
			c0-1.087,0.233-1.891,0.699-2.413c0.465-0.522,1.186-0.784,2.16-0.784c0.992,0,1.717,0.256,2.178,0.767
			c0.46,0.51,0.689,1.321,0.689,2.431v1.934h-4.096v0.64c0,0.861,0.081,1.43,0.24,1.706c0.161,0.277,0.49,0.414,0.989,0.414
			c0.427,0,0.741-0.107,0.939-0.325c0.199-0.216,0.29-0.55,0.272-1.001v-0.259h1.63v0.259c0.042,0.866-0.17,1.509-0.637,1.929
			C25.058,70.26,24.323,70.469,23.32,70.469z M24.558,65.267v-0.694c0-0.76-0.089-1.282-0.267-1.567s-0.502-0.427-0.97-0.427
			c-0.434,0-0.748,0.155-0.939,0.467c-0.194,0.312-0.29,0.822-0.29,1.527v0.694H24.558z"/>
		<path fill="#5F5F5E" d="M27.747,61.536h0.812h0.818v1.05l0.222-0.312c0.492-0.604,1.096-0.914,1.809-0.926v1.631
			c-0.754,0-1.281,0.182-1.582,0.547c-0.299,0.365-0.449,1.011-0.449,1.938v4.818h-0.811h-0.819V61.536z"/>
		<path fill="#5F5F5E" d="M32.405,61.536h0.834h0.836l1.381,7.08h-0.002l1.354-7.08h0.818h0.816l-1.977,8.746h-1.033h-1.041
			L32.405,61.536z"/>
		<path fill="#5F5F5E" d="M41.792,70.469c-0.664,0-1.17-0.211-1.514-0.633c-0.344-0.421-0.518-1.035-0.518-1.844v0.019
			c0-1.158,0.281-1.964,0.848-2.418c0.562-0.454,1.561-0.682,2.99-0.682h0.205v-1.042c0-0.415-0.092-0.734-0.279-0.958
			c-0.188-0.222-0.455-0.333-0.807-0.333c-0.367,0-0.652,0.125-0.85,0.374c-0.199,0.249-0.299,0.605-0.299,1.069h-1.611
			c-0.023-0.838,0.205-1.493,0.686-1.965s1.162-0.708,2.047-0.708c0.951,0,1.646,0.214,2.086,0.642
			c0.438,0.428,0.658,1.102,0.658,2.021v6.271h-1.631v-0.909c-0.035,0.102-0.084,0.199-0.15,0.295
			C43.304,70.202,42.683,70.469,41.792,70.469z M43.804,66.123h-0.355c-0.664,0-1.172,0.155-1.52,0.467
			c-0.346,0.312-0.52,0.765-0.52,1.358v-0.018c0,0.47,0.076,0.805,0.23,1.006c0.156,0.203,0.41,0.303,0.768,0.303
			c0.479,0,0.838-0.195,1.076-0.587c0.238-0.393,0.346-0.965,0.32-1.72V66.123z"/>
		<path fill="#5F5F5E" d="M47.214,57.716h0.812h0.818v12.566h-0.811h-0.82V57.716z"/>
	</g>
	<g>
		<path fill="#5F5F5E" d="M11.453,80.567v-0.089c0.005-0.146-0.017-0.253-0.067-0.321c-0.051-0.067-0.134-0.103-0.25-0.103
			c-0.105,0-0.185,0.026-0.236,0.075c-0.052,0.05-0.08,0.125-0.08,0.224c0,0.102,0.027,0.186,0.08,0.25
			c0.053,0.062,0.175,0.162,0.369,0.298c0.31,0.221,0.519,0.395,0.624,0.526c0.105,0.129,0.156,0.278,0.156,0.447
			c0,0.282-0.081,0.499-0.242,0.651c-0.162,0.153-0.391,0.228-0.688,0.228c-0.318,0-0.555-0.074-0.71-0.222
			c-0.147-0.138-0.221-0.343-0.219-0.615v-0.052v-0.089h0.548v0.089c-0.008,0.156,0.021,0.273,0.084,0.353
			c0.064,0.077,0.163,0.117,0.297,0.117c0.128,0,0.224-0.031,0.286-0.092c0.063-0.061,0.095-0.152,0.095-0.274
			c0-0.107-0.036-0.204-0.108-0.29c-0.071-0.084-0.212-0.201-0.422-0.35c-0.278-0.194-0.463-0.354-0.557-0.479
			s-0.141-0.271-0.141-0.442c0-0.247,0.075-0.438,0.226-0.572c0.15-0.135,0.364-0.201,0.64-0.201c0.308,0,0.532,0.066,0.669,0.201
			c0.132,0.126,0.197,0.32,0.196,0.584L12,80.479v0.089H11.453z"/>
		<path fill="#5F5F5E" d="M13.492,82.754c-0.359,0-0.612-0.086-0.759-0.26c-0.146-0.174-0.218-0.472-0.218-0.894v-0.872
			c0-0.371,0.079-0.647,0.239-0.825c0.159-0.18,0.406-0.269,0.738-0.269c0.34,0,0.588,0.087,0.746,0.263
			c0.157,0.174,0.236,0.451,0.236,0.831v0.662h-1.402v0.219c0,0.295,0.027,0.489,0.082,0.584c0.055,0.095,0.167,0.142,0.338,0.142
			c0.146,0,0.254-0.037,0.322-0.112c0.068-0.074,0.099-0.188,0.093-0.342v-0.089h0.558v0.089c0.014,0.296-0.058,0.516-0.217,0.659
			C14.087,82.683,13.835,82.754,13.492,82.754z M13.916,80.976v-0.238c0-0.261-0.03-0.438-0.091-0.535
			c-0.061-0.1-0.171-0.147-0.333-0.147c-0.147,0-0.255,0.055-0.321,0.16c-0.066,0.107-0.099,0.281-0.099,0.522v0.238H13.916z"/>
		<path fill="#5F5F5E" d="M16.854,81.75v0.088c0.009,0.313-0.06,0.544-0.208,0.692c-0.149,0.149-0.382,0.224-0.701,0.224
			c-0.331,0-0.572-0.08-0.727-0.241c-0.153-0.162-0.23-0.418-0.23-0.77v-0.996c0-0.401,0.074-0.686,0.22-0.856
			c0.146-0.17,0.393-0.256,0.737-0.256c0.311,0,0.537,0.072,0.677,0.217c0.129,0.136,0.195,0.343,0.195,0.622v0.062v0.089h-0.558
			v-0.089c0.008-0.167-0.014-0.29-0.065-0.366c-0.052-0.075-0.138-0.115-0.255-0.115c-0.146,0-0.248,0.042-0.306,0.127
			c-0.059,0.084-0.086,0.233-0.086,0.447v1.092c0,0.234,0.027,0.396,0.083,0.482c0.054,0.088,0.155,0.132,0.3,0.132
			c0.132,0,0.228-0.041,0.289-0.123c0.059-0.081,0.085-0.205,0.077-0.374V81.75H16.854z"/>
		<path fill="#5F5F5E" d="M17.953,81.914c0,0.138,0.028,0.243,0.085,0.313c0.058,0.072,0.14,0.107,0.25,0.107
			c0.167,0,0.29-0.054,0.371-0.16c0.081-0.107,0.12-0.271,0.12-0.492v-1.983h0.277h0.28v2.992H19.06h-0.281V82.44l-0.002,0.004
			c-0.188,0.207-0.405,0.31-0.653,0.31c-0.233,0-0.413-0.062-0.538-0.188c-0.127-0.125-0.189-0.306-0.189-0.538v-2.328h0.276h0.281
			V81.914z"/>
		<path fill="#5F5F5E" d="M19.956,79.699h0.277h0.28v0.359l0.077-0.107c0.168-0.207,0.374-0.312,0.618-0.316v0.558
			c-0.258,0-0.438,0.062-0.541,0.188c-0.103,0.125-0.154,0.345-0.154,0.662v1.649h-0.277h-0.28V79.699z"/>
		<path fill="#5F5F5E" d="M21.647,78.396h0.588v0.559h-0.588V78.396z M21.662,79.699h0.277h0.281v2.992h-0.278h-0.28V79.699z"/>
		<path fill="#5F5F5E" d="M24.102,82.712c-0.14,0.03-0.257,0.046-0.35,0.042c-0.24,0-0.409-0.046-0.506-0.143
			c-0.097-0.096-0.146-0.259-0.146-0.49v-2.012h-0.39v-0.41h0.39v-0.541l0.558-0.23v0.771h0.444v0.41h-0.444v1.924
			c0,0.112,0.032,0.189,0.097,0.234s0.181,0.067,0.347,0.067V82.712z"/>
		<path fill="#5F5F5E" d="M25.578,83.797h-0.259H25.06l0.312-1.051v0.006l-0.825-3.053h0.285h0.285l0.513,2.218h0l0.539-2.218h0.266
			h0.265L25.578,83.797z"/>
		<path fill="#5F5F5E" d="M27.869,82.754c-0.227,0-0.4-0.071-0.519-0.215c-0.117-0.145-0.176-0.355-0.176-0.631v0.006
			c0-0.397,0.097-0.672,0.29-0.827c0.192-0.155,0.533-0.233,1.023-0.233h0.07v-0.355c0-0.143-0.033-0.252-0.098-0.329
			c-0.062-0.075-0.154-0.114-0.275-0.114c-0.125,0-0.222,0.043-0.29,0.129c-0.068,0.085-0.103,0.207-0.103,0.365h-0.552
			c-0.008-0.286,0.07-0.511,0.235-0.673c0.164-0.161,0.398-0.241,0.7-0.241c0.325,0,0.562,0.073,0.714,0.219
			c0.15,0.146,0.225,0.377,0.225,0.692v2.146h-0.557V82.38c-0.013,0.035-0.03,0.068-0.052,0.102
			C28.386,82.664,28.173,82.754,27.869,82.754z M28.558,81.268h-0.123c-0.227,0-0.4,0.054-0.52,0.16
			c-0.119,0.107-0.178,0.263-0.178,0.465v-0.006c0,0.161,0.027,0.275,0.08,0.345c0.052,0.068,0.14,0.104,0.262,0.104
			c0.164,0,0.287-0.067,0.368-0.202c0.082-0.134,0.118-0.33,0.11-0.588V81.268z"/>
		<path fill="#5F5F5E" d="M29.718,79.699h0.279h0.277v0.246l0.014-0.012c0.188-0.2,0.408-0.299,0.662-0.299
			c0.229,0,0.406,0.062,0.531,0.188c0.125,0.125,0.188,0.302,0.188,0.531v2.337h-0.271h-0.273v-2.148c0-0.158-0.033-0.279-0.1-0.362
			c-0.066-0.084-0.164-0.126-0.291-0.126c-0.156,0-0.271,0.053-0.346,0.159c-0.074,0.105-0.113,0.27-0.113,0.491v1.986h-0.275
			h-0.281V79.699z"/>
		<path fill="#5F5F5E" d="M33.038,82.754c-0.277,0-0.479-0.081-0.605-0.242c-0.127-0.163-0.191-0.421-0.191-0.774v-0.954
			c0-0.39,0.066-0.679,0.195-0.866c0.131-0.188,0.33-0.282,0.602-0.282c0.246,0,0.441,0.088,0.584,0.265v-1.509h0.277h0.279v4.301
			h-0.277h-0.279V82.43C33.46,82.646,33.265,82.754,33.038,82.754z M33.214,80.071c-0.146,0-0.25,0.046-0.314,0.14
			c-0.062,0.093-0.094,0.25-0.094,0.472v1.079c0,0.229,0.025,0.379,0.076,0.454s0.152,0.113,0.305,0.113
			c0.166,0,0.281-0.059,0.342-0.176c0.062-0.117,0.094-0.33,0.094-0.639v-0.88c0.01-0.189-0.02-0.331-0.086-0.424
			C33.468,80.117,33.36,80.071,33.214,80.071z"/>
		<path fill="#5F5F5E" d="M36.071,82.712c-0.139,0.03-0.256,0.046-0.35,0.042c-0.238,0-0.408-0.046-0.506-0.143
			c-0.098-0.096-0.146-0.259-0.146-0.49v-2.012h-0.391v-0.41h0.391v-0.541l0.559-0.23v0.771h0.443v0.41h-0.443v1.924
			c0,0.112,0.031,0.189,0.098,0.234c0.064,0.045,0.18,0.067,0.346,0.067V82.712z"/>
		<path fill="#5F5F5E" d="M36.642,79.699h0.277H37.2v0.359l0.076-0.107c0.168-0.207,0.375-0.312,0.617-0.316v0.558
			c-0.258,0-0.438,0.062-0.541,0.188c-0.102,0.125-0.152,0.345-0.152,0.662v1.649h-0.277h-0.281V79.699z"/>
		<path fill="#5F5F5E" d="M38.897,81.914c0,0.138,0.027,0.243,0.084,0.313c0.057,0.072,0.141,0.107,0.25,0.107
			c0.168,0,0.291-0.054,0.371-0.16c0.08-0.107,0.121-0.271,0.121-0.492v-1.983h0.277h0.279v2.992h-0.277h-0.279V82.44l-0.004,0.004
			c-0.188,0.207-0.404,0.31-0.652,0.31c-0.234,0-0.414-0.062-0.539-0.188c-0.125-0.125-0.189-0.306-0.189-0.538v-2.328h0.277h0.281
			V81.914z"/>
		<path fill="#5F5F5E" d="M42.062,80.567v-0.089c0.006-0.146-0.016-0.253-0.068-0.321c-0.049-0.067-0.133-0.103-0.248-0.103
			c-0.105,0-0.184,0.026-0.236,0.075c-0.053,0.05-0.08,0.125-0.08,0.224c0,0.102,0.027,0.186,0.08,0.25
			c0.053,0.062,0.176,0.162,0.367,0.298c0.312,0.221,0.52,0.395,0.625,0.526c0.104,0.129,0.156,0.278,0.156,0.447
			c0,0.282-0.08,0.499-0.242,0.651c-0.162,0.153-0.391,0.228-0.688,0.228c-0.318,0-0.555-0.074-0.709-0.222
			c-0.148-0.138-0.221-0.343-0.221-0.615v-0.052v-0.089h0.551v0.089c-0.01,0.156,0.018,0.273,0.082,0.353
			c0.064,0.077,0.162,0.117,0.297,0.117c0.127,0,0.223-0.031,0.287-0.092c0.062-0.061,0.094-0.152,0.094-0.274
			c0-0.107-0.037-0.204-0.107-0.29c-0.072-0.084-0.213-0.201-0.424-0.35c-0.277-0.194-0.463-0.354-0.557-0.479
			s-0.141-0.271-0.141-0.442c0-0.247,0.076-0.438,0.227-0.572c0.15-0.135,0.363-0.201,0.639-0.201c0.309,0,0.533,0.066,0.672,0.201
			c0.131,0.126,0.195,0.32,0.193,0.584v0.059v0.089H42.062z"/>
		<path fill="#5F5F5E" d="M44.47,82.712c-0.139,0.03-0.258,0.046-0.35,0.042c-0.24,0-0.408-0.046-0.506-0.143
			c-0.098-0.096-0.146-0.259-0.146-0.49v-2.012h-0.391v-0.41h0.391v-0.541l0.559-0.23v0.771h0.443v0.41h-0.443v1.924
			c0,0.112,0.031,0.189,0.096,0.234c0.066,0.045,0.182,0.067,0.348,0.067V82.712z"/>
		<path fill="#5F5F5E" d="M45.099,82.036h0.658v0.655h-0.658V82.036z"/>
		<path fill="#5F5F5E" d="M46.409,78.391h0.277h0.279v4.301h-0.277h-0.279V78.391z"/>
		<path fill="#5F5F5E" d="M48.103,81.914c0,0.138,0.029,0.243,0.086,0.313c0.057,0.072,0.139,0.107,0.248,0.107
			c0.168,0,0.291-0.054,0.371-0.16c0.08-0.107,0.121-0.271,0.121-0.492v-1.983h0.277h0.281v2.992h-0.279h-0.279V82.44l-0.004,0.004
			c-0.188,0.207-0.404,0.31-0.65,0.31c-0.234,0-0.414-0.062-0.541-0.188c-0.125-0.125-0.189-0.306-0.189-0.538v-2.328h0.277h0.281
			V81.914z"/>
	</g>
</g>
<line fill="none" stroke="#E42728" stroke-width="1.3008" stroke-linecap="square" stroke-linejoin="round" stroke-miterlimit="10" x1="10.965" y1="74.697" x2="24.918" y2="74.697"/>
<line fill="none" stroke="#2B92D1" stroke-width="1.3008" stroke-linecap="square" stroke-linejoin="round" stroke-miterlimit="10" x1="34.891" y1="74.697" x2="48.845" y2="74.697"/>
<line fill="none" stroke="#6F2683" stroke-width="1.3008" stroke-linecap="square" stroke-miterlimit="10" x1="25.035" y1="74.697" x2="34.891" y2="74.697"/>
</svg>
